# Blender v3.2.1 OBJ File: ''
# www.blender.org
mtllib cube.mtl
o MrCube_Cube
v -10.000000 10.000000 10.000000
v -10.000000 -10.000000 -10.000000
v -10.000000 -10.000000 10.000000
v -10.000000 10.000000 -10.000000
v 10.000000 10.000000 10.000000
v 10.000000 10.000000 -10.000000
v 10.000000 -10.000000 10.000000
v 10.000000 -10.000000 -10.000000
vn -1.0000 0.0000 0.0000
vn 0.0000 1.0000 0.0000
vn 0.0000 0.0000 1.0000
vn 0.0000 -1.0000 0.0000
vn 1.0000 0.0000 0.0000
vn 0.0000 0.0000 -1.0000
usemtl Red
s 1
f 1//1 2//1 3//1
f 1//1 4//1 2//1
usemtl Green
f 4//2 5//2 6//2
f 4//2 1//2 5//2
usemtl Blue
f 5//3 3//3 7//3
f 5//3 1//3 3//3
usemtl Cyan
f 8//4 3//4 2//4
f 8//4 7//4 3//4
usemtl Magenta
f 6//5 7//5 8//5
f 6//5 5//5 7//5
usemtl Yellow
f 4//6 8//6 2//6
f 4//6 6//6 8//6
