# Blender 3.3.1
# www.blender.org
mtllib dodeca.mtl
o Dodeca
v 2.946785 -12.715182 -9.069105
v 9.704085 -12.586688 0.122169
v 15.597580 -3.050824 0.122225
v 2.882544 -12.586699 9.266822
v 4.703602 -3.050815 14.871855
v -4.832151 2.842811 14.871855
v -12.546803 -3.050812 9.266874
v -7.922614 -12.586689 -5.605017
v -7.922614 -12.586689 5.605018
v -15.637295 2.842875 0.000000
v -12.690578 -3.050812 -9.068987
v -4.832150 2.842811 -14.871855
v 4.703601 -3.050816 -14.871855
v 12.546803 3.050812 9.266874
v 7.778895 12.586689 5.802826
v -2.882544 12.586699 9.266822
v -9.704085 12.586688 0.122169
v -3.114972 12.586699 -9.191300
v 12.546802 3.050812 -9.266874
v 7.922614 12.586689 -5.605017
vn -0.0000 -1.0000 -0.0000
vn 0.7186 -0.4492 0.5308
vn -0.2764 -0.4472 0.8507
vn -0.8944 -0.4472 -0.0000
vn -0.2797 -0.4525 -0.8468
vn 0.7236 -0.4472 -0.5257
vn 0.2774 0.4406 0.8538
vn -0.7183 0.4439 0.5358
vn -0.7315 0.4439 -0.5175
vn 0.2764 0.4472 -0.8507
vn 0.8960 0.4439 0.0113
vn -0.0000 1.0000 -0.0000
vn -0.0060 -0.9998 0.0184
vn 0.7182 -0.4439 0.5358
vn 0.7228 -0.4387 0.5339
vn -0.2848 -0.4609 0.8405
vn -0.2764 -0.4472 0.8506
vn -0.8969 -0.4419 0.0181
vn -0.2749 -0.4577 -0.8455
vn -0.2866 -0.4504 -0.8456
vn 0.2711 0.4386 0.8568
vn 0.2661 0.4439 0.8556
vn -0.7310 0.4386 0.5227
vn -0.7236 0.4472 0.5257
vn -0.7230 0.4386 -0.5337
vn -0.7236 0.4472 -0.5257
vn 0.2578 0.4528 -0.8536
vn 0.8944 0.4472 -0.0000
vn 0.8987 0.4385 -0.0070
s 0
usemtl Red
f 3//11 20//11 15//11
f 15//28 14//28 3//28
f 3//29 19//29 20//29
usemtl Orange
f 8//1 2//1 4//1
f 4//1 9//1 8//1
f 8//13 1//13 2//13
usemtl Yellow
f 15//12 18//12 17//12
f 17//12 16//12 15//12
f 15//12 20//12 18//12
usemtl Chartreuse
f 13//10 18//10 20//10
f 20//27 19//27 13//27
f 13//10 12//10 18//10
usemtl Green
f 5//7 15//7 16//7
f 16//21 6//21 5//21
f 5//22 14//22 15//22
usemtl GreenBlue
f 2//6 13//6 19//6
f 19//6 3//6 2//6
f 2//6 1//6 13//6
usemtl Cyan
f 4//3 6//3 7//3
f 7//16 9//16 4//16
f 4//17 5//17 6//17
usemtl Azure
f 3//2 5//2 4//2
f 4//14 2//14 3//14
f 3//15 14//15 5//15
usemtl Blue
f 8//5 12//5 13//5
f 13//19 1//19 8//19
f 8//20 11//20 12//20
usemtl Purple
f 11//9 17//9 18//9
f 18//25 12//25 11//25
f 11//26 10//26 17//26
usemtl Violet
f 9//4 10//4 11//4
f 11//4 8//4 9//4
f 9//18 7//18 10//18
usemtl Magenta
f 7//8 16//8 17//8
f 17//23 10//23 7//23
f 7//24 6//24 16//24
